<svg xmlns="http://www.w3.org/2000/svg" viewBox="0 0 42 42"><rect width="42" height="42" rx="9.3954" fill="#1c1b19"/><g shape-rendering="crispEdges"><rect x="23" y="6" width="6" height="1" fill="#b3a091"/><rect x="22" y="7" width="7" height="1" fill="#b3a091"/><rect x="22" y="8" width="2" height="1" fill="#b3a091"/><rect x="24" y="8" width="2" height="1" fill="#eae5de"/><rect x="26" y="8" width="3" height="1" fill="#b3a091"/><rect x="20" y="9" width="2" height="1" fill="#b3a091"/><rect x="22" y="9" width="5" height="1" fill="#eae5de"/><rect x="27" y="9" width="2" height="1" fill="#b3a091"/><rect x="8" y="10" width="4" height="1" fill="#b3a091"/><rect x="20" y="10" width="2" height="1" fill="#b3a091"/><rect x="22" y="10" width="4" height="1" fill="#eae5de"/><rect x="26" y="10" width="1" height="1" fill="#f7f5f2"/><rect x="27" y="10" width="2" height="1" fill="#897b73"/><rect x="7" y="11" width="6" height="1" fill="#b3a091"/><rect x="18" y="11" width="2" height="1" fill="#b3a091"/><rect x="20" y="11" width="4" height="1" fill="#eae5de"/><rect x="24" y="11" width="3" height="1" fill="#f7f5f2"/><rect x="27" y="11" width="2" height="1" fill="#897b73"/><rect x="7" y="12" width="3" height="1" fill="#b3a091"/><rect x="10" y="12" width="3" height="1" fill="#eae5de"/><rect x="13" y="12" width="1" height="1" fill="#897b73"/><rect x="18" y="12" width="2" height="1" fill="#b3a091"/><rect x="20" y="12" width="4" height="1" fill="#eae5de"/><rect x="24" y="12" width="2" height="1" fill="#f7f5f2"/><rect x="26" y="12" width="1" height="1" fill="#ddd4c6"/><rect x="27" y="12" width="2" height="1" fill="#897b73"/><rect x="7" y="13" width="2" height="1" fill="#b3a091"/><rect x="9" y="13" width="4" height="1" fill="#eae5de"/><rect x="13" y="13" width="3" height="1" fill="#897b73"/><rect x="17" y="13" width="2" height="1" fill="#b3a091"/><rect x="19" y="13" width="3" height="1" fill="#eae5de"/><rect x="22" y="13" width="3" height="1" fill="#f7f5f2"/><rect x="25" y="13" width="2" height="1" fill="#ddd4c6"/><rect x="27" y="13" width="2" height="1" fill="#897b73"/><rect x="7" y="14" width="2" height="1" fill="#b3a091"/><rect x="9" y="14" width="4" height="1" fill="#eae5de"/><rect x="13" y="14" width="1" height="1" fill="#f7f5f2"/><rect x="14" y="14" width="3" height="1" fill="#897b73"/><rect x="17" y="14" width="2" height="1" fill="#b3a091"/><rect x="19" y="14" width="5" height="1" fill="#f7f5f2"/><rect x="24" y="14" width="1" height="1" fill="#e5dfd6"/><rect x="25" y="14" width="2" height="1" fill="#d4caba"/><rect x="27" y="14" width="2" height="1" fill="#897b73"/><rect x="7" y="15" width="2" height="1" fill="#b3a091"/><rect x="9" y="15" width="3" height="1" fill="#eae5de"/><rect x="12" y="15" width="3" height="1" fill="#f7f5f2"/><rect x="15" y="15" width="2" height="1" fill="#897b73"/><rect x="17" y="15" width="2" height="1" fill="#b3a091"/><rect x="19" y="15" width="3" height="1" fill="#f7f5f2"/><rect x="22" y="15" width="3" height="1" fill="#e5dfd6"/><rect x="25" y="15" width="2" height="1" fill="#d4caba"/><rect x="27" y="15" width="2" height="1" fill="#897b73"/><rect x="7" y="16" width="2" height="1" fill="#b3a091"/><rect x="9" y="16" width="5" height="1" fill="#f7f5f2"/><rect x="14" y="16" width="1" height="1" fill="#e5dfd6"/><rect x="15" y="16" width="2" height="1" fill="#d4caba"/><rect x="17" y="16" width="2" height="1" fill="#b3a091"/><rect x="19" y="16" width="5" height="1" fill="#e5dfd6"/><rect x="24" y="16" width="1" height="1" fill="#ddd4c6"/><rect x="25" y="16" width="2" height="1" fill="#b6a48e"/><rect x="27" y="16" width="2" height="1" fill="#897b73"/><rect x="29" y="16" width="3" height="1" fill="#b3a091"/><rect x="8" y="17" width="1" height="1" fill="#b3a091"/><rect x="9" y="17" width="3" height="1" fill="#f7f5f2"/><rect x="12" y="17" width="3" height="1" fill="#e5dfd6"/><rect x="15" y="17" width="2" height="1" fill="#d4caba"/><rect x="17" y="17" width="2" height="1" fill="#b3a091"/><rect x="19" y="17" width="4" height="1" fill="#e5dfd6"/><rect x="23" y="17" width="2" height="1" fill="#ddd4c6"/><rect x="25" y="17" width="1" height="1" fill="#b6a48e"/><rect x="26" y="17" width="3" height="1" fill="#897b73"/><rect x="29" y="17" width="4" height="1" fill="#b3a091"/><rect x="9" y="18" width="2" height="1" fill="#897b73"/><rect x="11" y="18" width="4" height="1" fill="#e5dfd6"/><rect x="15" y="18" width="2" height="1" fill="#b6a48e"/><rect x="17" y="18" width="2" height="1" fill="#b3a091"/><rect x="19" y="18" width="1" height="1" fill="#ddd4c6"/><rect x="20" y="18" width="3" height="1" fill="#e5dfd6"/><rect x="23" y="18" width="2" height="1" fill="#d4caba"/><rect x="25" y="18" width="3" height="1" fill="#897b73"/><rect x="28" y="18" width="1" height="1" fill="#e5dfd6"/><rect x="29" y="18" width="1" height="1" fill="#f7f5f2"/><rect x="30" y="18" width="3" height="1" fill="#b3a091"/><rect x="10" y="19" width="2" height="1" fill="#897b73"/><rect x="12" y="19" width="3" height="1" fill="#e5dfd6"/><rect x="15" y="19" width="1" height="1" fill="#b6a48e"/><rect x="16" y="19" width="2" height="1" fill="#b3a091"/><rect x="18" y="19" width="3" height="1" fill="#ddd4c6"/><rect x="21" y="19" width="2" height="1" fill="#e5dfd6"/><rect x="23" y="19" width="2" height="1" fill="#d4caba"/><rect x="25" y="19" width="2" height="1" fill="#897b73"/><rect x="27" y="19" width="3" height="1" fill="#e5dfd6"/><rect x="30" y="19" width="1" height="1" fill="#f7f5f2"/><rect x="31" y="19" width="2" height="1" fill="#b3a091"/><rect x="10" y="20" width="3" height="1" fill="#897b73"/><rect x="13" y="20" width="2" height="1" fill="#d4caba"/><rect x="15" y="20" width="3" height="1" fill="#b3a091"/><rect x="18" y="20" width="3" height="1" fill="#ddd4c6"/><rect x="21" y="20" width="2" height="1" fill="#e5dfd6"/><rect x="23" y="20" width="2" height="1" fill="#b6a48e"/><rect x="25" y="20" width="2" height="1" fill="#897b73"/><rect x="27" y="20" width="1" height="1" fill="#d4caba"/><rect x="28" y="20" width="3" height="1" fill="#e5dfd6"/><rect x="31" y="20" width="2" height="1" fill="#897b73"/><rect x="11" y="21" width="2" height="1" fill="#897b73"/><rect x="13" y="21" width="2" height="1" fill="#d4caba"/><rect x="15" y="21" width="2" height="1" fill="#b3a091"/><rect x="17" y="21" width="5" height="1" fill="#ddd4c6"/><rect x="22" y="21" width="1" height="1" fill="#e5dfd6"/><rect x="23" y="21" width="2" height="1" fill="#b6a48e"/><rect x="25" y="21" width="2" height="1" fill="#897b73"/><rect x="27" y="21" width="2" height="1" fill="#d4caba"/><rect x="29" y="21" width="2" height="1" fill="#e5dfd6"/><rect x="31" y="21" width="1" height="1" fill="#897b73"/><rect x="8" y="22" width="3" height="1" fill="#b3a091"/><rect x="11" y="22" width="2" height="1" fill="#897b73"/><rect x="13" y="22" width="2" height="1" fill="#b6a48e"/><rect x="15" y="22" width="2" height="1" fill="#b3a091"/><rect x="17" y="22" width="6" height="1" fill="#ddd4c6"/><rect x="23" y="22" width="2" height="1" fill="#b6a48e"/><rect x="25" y="22" width="2" height="1" fill="#6f5d5a"/><rect x="27" y="22" width="2" height="1" fill="#d4caba"/><rect x="29" y="22" width="2" height="1" fill="#6f5d5a"/><rect x="7" y="23" width="5" height="1" fill="#b3a091"/><rect x="12" y="23" width="2" height="1" fill="#897b73"/><rect x="14" y="23" width="1" height="1" fill="#b6a48e"/><rect x="15" y="23" width="2" height="1" fill="#b3a091"/><rect x="17" y="23" width="6" height="1" fill="#ddd4c6"/><rect x="23" y="23" width="2" height="1" fill="#b6a48e"/><rect x="25" y="23" width="2" height="1" fill="#6f5d5a"/><rect x="27" y="23" width="2" height="1" fill="#d4caba"/><rect x="29" y="23" width="2" height="1" fill="#6f5d5a"/><rect x="7" y="24" width="2" height="1" fill="#b3a091"/><rect x="9" y="24" width="2" height="1" fill="#eae5de"/><rect x="11" y="24" width="1" height="1" fill="#b3a091"/><rect x="12" y="24" width="3" height="1" fill="#897b73"/><rect x="15" y="24" width="2" height="1" fill="#b3a091"/><rect x="17" y="24" width="1" height="1" fill="#d4caba"/><rect x="18" y="24" width="4" height="1" fill="#ddd4c6"/><rect x="22" y="24" width="1" height="1" fill="#d4caba"/><rect x="23" y="24" width="2" height="1" fill="#b6a48e"/><rect x="25" y="24" width="2" height="1" fill="#6f5d5a"/><rect x="27" y="24" width="2" height="1" fill="#b6a48e"/><rect x="29" y="24" width="5" height="1" fill="#b3a091"/><rect x="7" y="25" width="2" height="1" fill="#b3a091"/><rect x="9" y="25" width="3" height="1" fill="#eae5de"/><rect x="12" y="25" width="1" height="1" fill="#b3a091"/><rect x="13" y="25" width="2" height="1" fill="#897b73"/><rect x="15" y="25" width="2" height="1" fill="#b3a091"/><rect x="17" y="25" width="2" height="1" fill="#d4caba"/><rect x="19" y="25" width="2" height="1" fill="#ddd4c6"/><rect x="21" y="25" width="1" height="1" fill="#d4caba"/><rect x="22" y="25" width="2" height="1" fill="#b6a48e"/><rect x="24" y="25" width="3" height="1" fill="#6f5d5a"/><rect x="27" y="25" width="1" height="1" fill="#b6a48e"/><rect x="28" y="25" width="7" height="1" fill="#b3a091"/><rect x="7" y="26" width="2" height="1" fill="#897b73"/><rect x="9" y="26" width="1" height="1" fill="#f7f5f2"/><rect x="10" y="26" width="3" height="1" fill="#eae5de"/><rect x="13" y="26" width="2" height="1" fill="#897b73"/><rect x="15" y="26" width="2" height="1" fill="#b6a48e"/><rect x="17" y="26" width="2" height="1" fill="#d4caba"/><rect x="19" y="26" width="2" height="1" fill="#ddd4c6"/><rect x="21" y="26" width="2" height="1" fill="#b6a48e"/><rect x="23" y="26" width="3" height="1" fill="#6f5d5a"/><rect x="26" y="26" width="2" height="1" fill="#b6a48e"/><rect x="28" y="26" width="2" height="1" fill="#b3a091"/><rect x="30" y="26" width="2" height="1" fill="#e5dfd6"/><rect x="32" y="26" width="3" height="1" fill="#b3a091"/><rect x="7" y="27" width="2" height="1" fill="#897b73"/><rect x="9" y="27" width="3" height="1" fill="#f7f5f2"/><rect x="12" y="27" width="2" height="1" fill="#eae5de"/><rect x="14" y="27" width="2" height="1" fill="#897b73"/><rect x="16" y="27" width="1" height="1" fill="#b6a48e"/><rect x="17" y="27" width="3" height="1" fill="#d4caba"/><rect x="20" y="27" width="1" height="1" fill="#ddd4c6"/><rect x="21" y="27" width="2" height="1" fill="#b6a48e"/><rect x="23" y="27" width="2" height="1" fill="#6f5d5a"/><rect x="25" y="27" width="2" height="1" fill="#b6a48e"/><rect x="27" y="27" width="2" height="1" fill="#b3a091"/><rect x="29" y="27" width="4" height="1" fill="#e5dfd6"/><rect x="33" y="27" width="2" height="1" fill="#b3a091"/><rect x="7" y="28" width="2" height="1" fill="#897b73"/><rect x="9" y="28" width="1" height="1" fill="#d4caba"/><rect x="10" y="28" width="2" height="1" fill="#f7f5f2"/><rect x="12" y="28" width="2" height="1" fill="#eae5de"/><rect x="14" y="28" width="3" height="1" fill="#897b73"/><rect x="17" y="28" width="4" height="1" fill="#d4caba"/><rect x="21" y="28" width="2" height="1" fill="#b6a48e"/><rect x="23" y="28" width="2" height="1" fill="#6f5d5a"/><rect x="25" y="28" width="2" height="1" fill="#897b73"/><rect x="27" y="28" width="2" height="1" fill="#d4caba"/><rect x="29" y="28" width="2" height="1" fill="#f7f5f2"/><rect x="31" y="28" width="2" height="1" fill="#d4caba"/><rect x="33" y="28" width="2" height="1" fill="#897b73"/><rect x="7" y="29" width="2" height="1" fill="#897b73"/><rect x="9" y="29" width="3" height="1" fill="#d4caba"/><rect x="12" y="29" width="1" height="1" fill="#f7f5f2"/><rect x="13" y="29" width="2" height="1" fill="#eae5de"/><rect x="15" y="29" width="2" height="1" fill="#897b73"/><rect x="17" y="29" width="3" height="1" fill="#d4caba"/><rect x="20" y="29" width="3" height="1" fill="#b6a48e"/><rect x="23" y="29" width="2" height="1" fill="#6f5d5a"/><rect x="25" y="29" width="2" height="1" fill="#897b73"/><rect x="27" y="29" width="2" height="1" fill="#d4caba"/><rect x="29" y="29" width="2" height="1" fill="#f7f5f2"/><rect x="31" y="29" width="2" height="1" fill="#d4caba"/><rect x="33" y="29" width="1" height="1" fill="#897b73"/><rect x="7" y="30" width="2" height="1" fill="#6f5d5a"/><rect x="9" y="30" width="6" height="1" fill="#d4caba"/><rect x="15" y="30" width="2" height="1" fill="#6f5d5a"/><rect x="17" y="30" width="3" height="1" fill="#d4caba"/><rect x="20" y="30" width="3" height="1" fill="#b6a48e"/><rect x="23" y="30" width="2" height="1" fill="#6f5d5a"/><rect x="25" y="30" width="2" height="1" fill="#b6a48e"/><rect x="27" y="30" width="2" height="1" fill="#d4caba"/><rect x="29" y="30" width="2" height="1" fill="#b6a48e"/><rect x="31" y="30" width="2" height="1" fill="#6f5d5a"/><rect x="8" y="31" width="2" height="1" fill="#6f5d5a"/><rect x="10" y="31" width="5" height="1" fill="#d4caba"/><rect x="15" y="31" width="3" height="1" fill="#6f5d5a"/><rect x="18" y="31" width="1" height="1" fill="#d4caba"/><rect x="19" y="31" width="4" height="1" fill="#b6a48e"/><rect x="23" y="31" width="2" height="1" fill="#6f5d5a"/><rect x="25" y="31" width="2" height="1" fill="#b6a48e"/><rect x="27" y="31" width="2" height="1" fill="#d4caba"/><rect x="29" y="31" width="1" height="1" fill="#b6a48e"/><rect x="30" y="31" width="2" height="1" fill="#6f5d5a"/><rect x="8" y="32" width="2" height="1" fill="#6f5d5a"/><rect x="10" y="32" width="4" height="1" fill="#d4caba"/><rect x="14" y="32" width="1" height="1" fill="#b6a48e"/><rect x="15" y="32" width="4" height="1" fill="#6f5d5a"/><rect x="19" y="32" width="4" height="1" fill="#b6a48e"/><rect x="23" y="32" width="2" height="1" fill="#6f5d5a"/><rect x="25" y="32" width="5" height="1" fill="#b6a48e"/><rect x="30" y="32" width="2" height="1" fill="#6f5d5a"/><rect x="10" y="33" width="2" height="1" fill="#6f5d5a"/><rect x="12" y="33" width="1" height="1" fill="#d4caba"/><rect x="13" y="33" width="1" height="1" fill="#b6a48e"/><rect x="14" y="33" width="6" height="1" fill="#6f5d5a"/><rect x="20" y="33" width="2" height="1" fill="#b6a48e"/><rect x="22" y="33" width="4" height="1" fill="#6f5d5a"/><rect x="26" y="33" width="2" height="1" fill="#b6a48e"/><rect x="28" y="33" width="2" height="1" fill="#6f5d5a"/><rect x="10" y="34" width="6" height="1" fill="#6f5d5a"/><rect x="18" y="34" width="5" height="1" fill="#6f5d5a"/><rect x="25" y="34" width="5" height="1" fill="#6f5d5a"/><rect x="12" y="35" width="2" height="1" fill="#6f5d5a"/><rect x="20" y="35" width="2" height="1" fill="#6f5d5a"/><rect x="26" y="35" width="2" height="1" fill="#6f5d5a"/></g></svg>